<svg width="136" height="43" viewBox="0 0 136 43" fill="none" xmlns="http://www.w3.org/2000/svg">
<path fill-rule="evenodd" clip-rule="evenodd" d="M14.7529 6.05488C11.5544 6.62261 8.76394 8.40929 6.89517 11.0859C5.02703 13.7637 4.30067 17.0155 4.84837 20.2318C5.64336 24.7829 8.69903 29.2562 13.6921 33.1742C15.7296 34.7839 17.9291 36.1867 20.2182 37.3408C21.9906 35.4538 23.5762 33.3836 24.9442 31.1694C28.3053 25.7769 29.6616 20.5197 28.8684 15.9785C28.2898 12.756 26.5058 9.94981 23.8426 8.07775C21.1795 6.20569 17.9507 5.48716 14.7529 6.05488ZM19.2675 42.1038C16.2643 40.6979 13.4195 38.9405 10.8175 36.884C4.90277 32.2431 1.24808 26.7672 0.247247 21.0388C-0.51188 16.5768 0.492047 12.0805 3.07605 8.37688C5.66128 4.67452 9.52059 2.20358 13.9431 1.41898C18.3655 0.633767 22.8294 1.62713 26.5138 4.21585C30.1963 6.8052 32.6647 10.6852 33.4659 15.1509C34.4655 20.8718 32.886 27.2776 28.9037 33.6665C27.1518 36.5008 25.0734 39.1331 22.6984 41.5187L21.2011 42.9694L19.2675 42.1038Z" fill="#FFC4E9" style="mix-blend-mode:multiply"/>
<g style="mix-blend-mode:multiply">
<path fill-rule="evenodd" clip-rule="evenodd" d="M21.1877 5.487C17.9404 5.487 14.8854 6.75892 12.5839 9.06846C10.2836 11.378 9.00892 14.4534 8.99347 17.7283C8.99347 22.3399 11.2338 27.2799 15.472 32.003C17.2004 33.9443 19.118 35.7054 21.189 37.2547C23.2444 35.7172 25.1688 33.9511 26.8985 32.0099C31.1423 27.2786 33.382 22.338 33.382 17.7171C33.3678 14.4534 32.0931 11.378 29.7916 9.06784C27.4907 6.75892 24.435 5.487 21.1883 5.487H21.1877ZM21.189 42.9693L19.4655 41.8021C16.7158 39.8689 14.2159 37.6398 12.0034 35.1539C6.98129 29.5583 4.32434 23.5258 4.32434 17.7171C4.34412 13.179 6.10718 8.92637 9.28896 5.73253C12.4714 2.53807 16.6966 0.778809 21.1877 0.778809C25.6782 0.778809 29.9047 2.53807 33.0871 5.73191C36.2689 8.92762 38.0319 13.1803 38.0517 17.7065C38.0517 23.5239 35.3942 29.5558 30.3683 35.1601C28.1596 37.6404 25.6596 39.8689 22.9446 41.7784L21.189 42.9693Z" fill="#E27AFC"/>
</g>
<path fill-rule="evenodd" clip-rule="evenodd" d="M27.6338 6.05488C24.436 5.48716 21.2078 6.20569 18.5447 8.07775C15.881 9.94981 14.0969 12.756 13.5189 15.9785C12.7251 20.5197 14.0814 25.7769 17.4425 31.1694C18.8105 33.3836 20.3962 35.4538 22.1691 37.3408C24.4576 36.1867 26.6571 34.7839 28.6946 33.1742C33.6877 29.2562 36.7434 24.7829 37.5383 20.2318C38.086 17.0155 37.3597 13.7637 35.4915 11.0859C33.6228 8.40929 30.8323 6.62261 27.6344 6.05488H27.6338ZM21.1862 42.9694L19.689 41.5187C17.3139 39.1331 15.235 36.5008 13.4836 33.6665C9.50132 27.2776 7.92186 20.8718 8.92084 15.1509C9.72201 10.6852 12.191 6.8052 15.8735 4.21585C19.5573 1.62713 24.0212 0.633767 28.4443 1.41898C32.8661 2.20358 36.7254 4.67452 39.3107 8.37688C41.8947 12.0805 42.8992 16.5768 42.1401 21.0388C41.1392 26.7672 37.4846 32.2431 31.5692 36.884C28.9679 38.9405 26.123 40.6979 23.1192 42.1038L21.1862 42.9694Z" fill="#2091EF" style="mix-blend-mode:multiply"/>
<path fill-rule="evenodd" clip-rule="evenodd" d="M61.687 10.7696V16.5054C61.687 16.7628 61.5244 16.9267 61.2691 16.9267H59.0863C58.8075 16.9267 58.6449 16.7628 58.6449 16.5054V11.1908C58.6449 9.57553 57.6694 8.49804 56.276 8.49804C54.7435 8.49804 53.8144 9.66901 53.8144 11.0967V16.5054C53.8144 16.7628 53.6518 16.9267 53.3965 16.9267H51.2137C50.9343 16.9267 50.7723 16.7628 50.7723 16.5054V0.422143C50.7723 0.164143 50.9343 0.000244141 51.2137 0.000244141H53.3736C53.6518 0.000244141 53.8144 0.164143 53.8144 0.422143V6.90704C54.4647 6.22777 55.4866 5.73607 56.88 5.73607C59.7137 5.73607 61.687 7.74897 61.687 10.7696Z" fill="#161616"/>
<path fill-rule="evenodd" clip-rule="evenodd" d="M72.5559 11.3312C72.5559 9.78632 71.395 8.52187 69.839 8.52187C68.3065 8.52187 67.1221 9.78632 67.1221 11.3312C67.1221 12.9004 68.3065 14.1405 69.839 14.1405C71.395 14.1405 72.5559 12.9004 72.5559 11.3312ZM64.0565 11.3312C64.0565 8.14733 66.6343 5.7356 69.839 5.7356C73.0436 5.7356 75.6215 8.14733 75.6215 11.3312C75.6215 14.5151 73.0436 16.9268 69.839 16.9268C66.6343 16.9268 64.0565 14.5151 64.0565 11.3312Z" fill="#161616"/>
<path fill-rule="evenodd" clip-rule="evenodd" d="M78.9895 12.7358V8.31118H77.2481C76.9687 8.31118 76.8296 8.14791 76.8296 7.86685V6.15744C76.8296 5.90007 76.9687 5.73617 77.2481 5.73617H79.0822V2.66946C79.0822 2.41208 79.222 2.24756 79.5001 2.24756H81.5908C81.869 2.24756 82.0322 2.41208 82.0322 2.66946V5.73617H85.562C85.8402 5.73617 86.0034 5.90007 86.0034 6.15744V7.86685C86.0034 8.14791 85.8402 8.31118 85.562 8.31118H82.0322V12.4317C82.0322 13.6962 82.821 14.1642 83.9127 14.1642C84.5167 14.1642 84.9581 13.9535 85.2832 13.8133C85.5385 13.6725 85.7475 13.7192 85.8637 13.9766L86.5604 15.499C86.6766 15.7564 86.6068 15.9197 86.3743 16.1073C86.1419 16.2712 85.0972 16.9268 83.216 16.9268C80.5918 16.9268 78.9895 15.428 78.9895 12.7358Z" fill="#161616"/>
<path fill-rule="evenodd" clip-rule="evenodd" d="M90.811 10.2078H95.7806L95.7577 10.1374C95.5716 8.99013 94.666 8.17064 93.4581 8.17064C92.1117 8.17064 91.1355 8.89665 90.811 10.2078ZM98.6372 11.7527C98.6137 12.0107 98.474 12.174 98.2187 12.174H90.811C91.159 13.4384 92.3435 14.3514 93.9693 14.3514C95.1766 14.3514 95.9431 13.9071 96.4544 13.5319C96.6862 13.368 96.8958 13.3911 97.0342 13.6491L97.8478 15.1011C97.9869 15.3348 97.9634 15.5454 97.7544 15.7093C97.0342 16.2708 95.7342 16.9264 93.6441 16.9264C90.2534 16.9264 87.7683 14.4916 87.7683 11.3314C87.7683 8.19432 90.0679 5.73584 93.3425 5.73584C96.57 5.73584 98.6601 8.1239 98.6601 11.3551C98.6601 11.4947 98.6601 11.6125 98.6372 11.7527Z" fill="#161616"/>
<path fill-rule="evenodd" clip-rule="evenodd" d="M101.169 16.5055V0.421642C101.169 0.164265 101.332 0.000366211 101.61 0.000366211H103.793C104.049 0.000366211 104.211 0.164265 104.211 0.421642V16.5055C104.211 16.7629 104.049 16.9268 103.793 16.9268H101.61C101.332 16.9268 101.169 16.7629 101.169 16.5055Z" fill="#161616"/>
<path fill-rule="evenodd" clip-rule="evenodd" d="M58.7379 32.0572C58.7379 30.4182 57.6691 29.2478 55.9975 29.2478C54.4415 29.2478 53.2571 30.4419 53.2571 32.0572C53.2571 33.6494 54.4415 34.8665 55.9975 34.8665C57.6691 34.8665 58.7379 33.6731 58.7379 32.0572ZM61.5945 26.8841V36.7398C61.5945 39.8769 59.5038 42.2182 55.7416 42.2182C53.5588 42.2182 52.0961 41.7265 51.0044 41.0242C50.772 40.8834 50.7491 40.6727 50.8882 40.4384L51.7475 38.9633C51.8637 38.7296 52.0727 38.6829 52.328 38.7994C53.1872 39.2444 54.3253 39.5959 55.5326 39.5959C57.3445 39.5959 58.5518 38.5421 58.5518 37.1374V36.2948C57.7624 37.0906 56.6942 37.6528 55.3243 37.6528C52.3743 37.6528 50.1915 35.241 50.1915 32.0572C50.1915 28.8733 52.4442 26.4615 55.3935 26.4615C56.9965 26.4615 58.2038 27.1408 59.0396 28.0538L59.1094 26.8604C59.1094 26.603 59.2949 26.4622 59.5502 26.4622H61.176C61.4313 26.4622 61.5945 26.603 61.5945 26.8841Z" fill="#161616"/>
<path fill-rule="evenodd" clip-rule="evenodd" d="M64.7302 37.2314V26.884C64.7302 26.6253 64.8928 26.4614 65.1481 26.4614H67.3309C67.6097 26.4614 67.7723 26.6253 67.7723 26.884V37.2314C67.7723 37.4888 67.6097 37.6527 67.3309 37.6527H65.1481C64.8693 37.6527 64.7302 37.4888 64.7302 37.2314ZM64.219 22.88C64.219 21.7327 65.0783 20.9606 66.1928 20.9375C67.3309 20.9375 68.2137 21.7327 68.2137 22.88C68.2137 24.0273 67.3309 24.8231 66.1928 24.8231C65.0783 24.8231 64.219 24.0273 64.219 22.88Z" fill="#161616"/>
<path fill-rule="evenodd" clip-rule="evenodd" d="M71.9752 37.2313V29.037H70.3957C70.1175 29.037 69.9543 28.8737 69.9543 28.5926V26.8839C69.9543 26.6252 70.1175 26.4613 70.3957 26.4613H71.9752V25.4082C71.9752 22.4119 73.7166 20.5392 76.7358 20.5392C77.8739 20.5392 78.6633 20.8433 79.198 21.1474C79.4305 21.2883 79.4762 21.4989 79.36 21.7326L78.5941 23.3012C78.4778 23.5355 78.2689 23.5828 78.0136 23.4887C77.8046 23.4183 77.5023 23.3248 77.0845 23.3248C76.0391 23.3248 75.0173 23.9567 75.0173 25.5721V26.4613H77.8046C78.0599 26.4613 78.2219 26.6252 78.2219 26.8839V28.5926C78.2219 28.8737 78.0599 29.037 77.8046 29.037H75.0173V37.2313C75.0173 37.4887 74.8547 37.6526 74.5994 37.6526H72.4166C72.1378 37.6526 71.9752 37.4887 71.9752 37.2313Z" fill="#161616"/>
<path fill-rule="evenodd" clip-rule="evenodd" d="M81.4507 33.4618V29.0378H79.7093C79.4299 29.0378 79.2914 28.8745 79.2914 28.5934V26.884C79.2914 26.6266 79.4299 26.4627 79.7093 26.4627H81.5434V23.3954C81.5434 23.138 81.6831 22.9735 81.9613 22.9735H84.052C84.3302 22.9735 84.4928 23.138 84.4928 23.3954V26.4627H88.0232C88.3014 26.4627 88.4646 26.6266 88.4646 26.884V28.5934C88.4646 28.8745 88.3014 29.0378 88.0232 29.0378H84.4928V33.1577C84.4928 34.4221 85.2822 34.8901 86.3739 34.8901C86.9779 34.8901 87.4192 34.6795 87.7444 34.5393C87.9997 34.3984 88.2093 34.4452 88.3249 34.7025L89.0216 36.225C89.1378 36.4824 89.0679 36.6456 88.8355 36.8332C88.6031 36.9971 87.5583 37.6527 85.6772 37.6527C83.053 37.6527 81.4507 36.1539 81.4507 33.4618Z" fill="#161616"/>
<path fill-rule="evenodd" clip-rule="evenodd" d="M90.2067 32.0572C90.2067 28.92 92.7381 26.4615 96.0819 26.4615C97.8703 26.4615 98.962 26.9539 99.6587 27.4219C99.8905 27.5621 99.9368 27.7727 99.7749 28.0775L98.9848 29.5762C98.8458 29.8336 98.6139 29.8567 98.3815 29.7395C97.9401 29.4821 97.2898 29.2478 96.4299 29.2478C94.5723 29.2478 93.3186 30.4182 93.3186 32.0572C93.3186 33.6961 94.5494 34.8665 96.3842 34.8665C97.2898 34.8665 97.9166 34.6559 98.4044 34.3754C98.6603 34.2346 98.8458 34.2813 98.962 34.515L99.7749 36.0842C99.914 36.3179 99.8676 36.5055 99.6352 36.6694C99.1938 36.9741 98.0557 37.6528 96.0819 37.6528C92.6683 37.6528 90.2067 35.2173 90.2067 32.0572Z" fill="#161616"/>
<path fill-rule="evenodd" clip-rule="evenodd" d="M110.04 32.0572C110.04 30.4182 108.972 29.2478 107.3 29.2478C105.744 29.2478 104.56 30.4419 104.56 32.0572C104.56 33.6494 105.744 34.8665 107.3 34.8665C108.972 34.8665 110.063 33.6731 110.04 32.0572ZM112.966 26.8841V37.2315C112.966 37.4889 112.804 37.6528 112.525 37.6528H110.691C110.412 37.6528 110.249 37.5119 110.226 37.2315L110.156 35.9907C109.367 36.9504 108.206 37.6528 106.627 37.6528C103.677 37.6528 101.494 35.241 101.494 32.0572C101.494 28.8733 103.747 26.4615 106.696 26.4615C108.113 26.4615 109.227 26.9769 110.04 27.726L110.11 26.8604C110.133 26.603 110.296 26.4622 110.551 26.4622H112.525C112.804 26.4622 112.966 26.6267 112.966 26.8841Z" fill="#161616"/>
<path fill-rule="evenodd" clip-rule="evenodd" d="M123.138 26.9536L122.975 29.1073C122.952 29.4115 122.766 29.5292 122.487 29.4588C122.325 29.4115 122.116 29.3884 121.861 29.3884C120.165 29.3884 119.12 30.512 119.12 32.0338V37.2312C119.12 37.4886 118.957 37.6525 118.702 37.6525H116.519C116.24 37.6525 116.078 37.4886 116.078 37.2312V26.8844C116.078 26.6271 116.24 26.4625 116.519 26.4625H118.191C118.447 26.4625 118.609 26.6271 118.633 26.8844L118.726 28.7802C119.097 27.4684 120.421 26.4619 122.255 26.4619C122.441 26.4619 122.627 26.4619 122.79 26.4856C123.045 26.5087 123.161 26.6962 123.138 26.9536Z" fill="#161616"/>
<path fill-rule="evenodd" clip-rule="evenodd" d="M132.799 32.0571C132.799 30.4649 131.73 29.2478 130.059 29.2478C128.503 29.2478 127.318 30.4649 127.318 32.0571C127.318 33.6731 128.503 34.8665 130.059 34.8665C131.73 34.8665 132.799 33.6961 132.799 32.0571ZM135.701 21.1476V37.2309C135.701 37.4882 135.539 37.6521 135.261 37.6521H133.635C133.38 37.6521 133.217 37.5113 133.194 37.2309L133.124 36.0374C132.288 36.9741 131.081 37.6528 129.478 37.6528C126.528 37.6528 124.253 35.241 124.253 32.0571C124.253 28.8733 126.435 26.4615 129.385 26.4615C130.802 26.4615 131.916 27.0473 132.683 27.8899V21.1476C132.683 20.8902 132.822 20.7257 133.101 20.7257H135.261C135.539 20.7257 135.701 20.8902 135.701 21.1476Z" fill="#161616"/>
</svg>
