<svg width="16" height="16" viewBox="0 0 16 16" fill="none" xmlns="http://www.w3.org/2000/svg">
<path fill-rule="evenodd" clip-rule="evenodd" d="M1 7.97757C1 11.8313 4.12396 14.9553 7.97757 14.9553C11.8312 14.9553 14.9551 11.8313 14.9551 7.97757C14.9551 4.12396 11.8312 1 7.97757 1C4.12396 1 1 4.12396 1 7.97757Z" stroke="#161616" stroke-width="1.8" stroke-linecap="round" stroke-linejoin="round"/>
<path fill-rule="evenodd" clip-rule="evenodd" d="M5.24878 8.12809C5.24878 9.63527 6.47054 10.857 7.97758 10.857C9.48476 10.857 10.7064 9.63527 10.7064 8.12809C10.7064 6.62106 9.48476 5.39929 7.97758 5.39929C6.47054 5.39929 5.24878 6.62106 5.24878 8.12809Z" stroke="#161616" stroke-width="1.8" stroke-linecap="round" stroke-linejoin="round"/>
<path d="M3.63452 13.092C3.63452 11.8996 5.57902 10.933 7.97753 10.933C10.3762 10.933 12.3205 11.8996 12.3205 13.092" stroke="#161616" stroke-width="1.8" stroke-linecap="round" stroke-linejoin="round"/>
</svg>
