<svg width="13" height="12" viewBox="0 0 13 12" fill="none" xmlns="http://www.w3.org/2000/svg">
<path d="M10.4007 11.9986C10.5254 11.9881 10.6401 11.9236 10.7154 11.8215C10.7907 11.7195 10.8188 11.5899 10.7935 11.4656L10.0202 7.64658L12.8568 5.01752V5.01694C12.9838 4.89965 13.0316 4.71726 12.9788 4.5513C12.9254 4.38591 12.782 4.26688 12.6112 4.24694L8.79329 3.81181L7.20671 0.261555C7.13645 0.102043 6.98021 0 6.80767 0C6.63512 0 6.47887 0.102041 6.40862 0.261555L4.82204 3.81181L1.00414 4.24694C0.833283 4.26688 0.689963 4.38593 0.636568 4.5513C0.583736 4.71726 0.63151 4.89964 0.758531 5.01694L3.59516 7.646L2.82179 11.465V11.4656C2.78751 11.6362 2.85439 11.8116 2.99321 11.9142C3.13204 12.0162 3.31751 12.0268 3.46702 11.9406L6.8078 10.0153L10.1486 11.9406C10.225 11.9852 10.3133 12.0057 10.4009 11.9986H10.4007Z" fill="#FFC36D"/>
</svg>
